<svg width="512" height="512" viewBox="0 0 512 512" fill="none" xmlns="http://www.w3.org/2000/svg">
<g clip-path="url(#clip0_1171_89)">
<circle cx="256" cy="256" r="256" fill="#282828"/>
<rect x="161" y="97.4562" width="191" height="340.114" rx="10" fill="#86B6F6"/>
<path d="M209.588 84C209.588 78.4772 214.065 74 219.588 74H293.412C298.935 74 303.412 78.4772 303.412 84V104.158H209.588V84Z" fill="#86B6F6"/>
<path d="M161 249.921H352V427.57C352 433.093 347.523 437.57 342 437.57H171C165.477 437.57 161 433.093 161 427.57V249.921Z" fill="#4E94F1"/>
<path d="M289.603 238.862C289.272 238.021 288.749 237.347 288.112 236.94C287.476 236.533 286.759 236.415 286.069 236.603L268.071 241.742L273.634 193.013C273.737 192.079 273.616 191.124 273.29 190.288C272.963 189.453 272.448 188.781 271.819 188.37C271.191 187.959 270.481 187.832 269.795 188.005C269.109 188.179 268.482 188.646 268.005 189.337L222.192 255.785C221.72 256.471 221.421 257.344 221.339 258.275C221.257 259.206 221.395 260.149 221.734 260.967C222.068 261.792 222.587 262.451 223.217 262.849C223.847 263.248 224.553 263.364 225.235 263.182L243.495 258.044L237.67 306.772C237.557 307.713 237.671 308.678 237.995 309.524C238.32 310.37 238.837 311.051 239.47 311.468C240.101 311.882 240.814 312.011 241.503 311.836C242.192 311.66 242.822 311.19 243.299 310.493L289.112 244.045C289.589 243.364 289.894 242.494 289.982 241.562C290.07 240.631 289.938 239.685 289.603 238.862ZM245.884 293.837L250.76 252.994C250.836 252.356 250.808 251.702 250.679 251.08C250.549 250.458 250.32 249.882 250.008 249.392C249.696 248.902 249.309 248.511 248.873 248.246C248.438 247.98 247.965 247.847 247.487 247.855H246.833L234.005 251.488L265.551 205.816L260.904 246.792C260.822 247.501 260.869 248.226 261.04 248.905C261.211 249.584 261.501 250.197 261.886 250.69C262.27 251.178 262.735 251.534 263.242 251.727C263.749 251.92 264.283 251.944 264.798 251.798L277.299 248.254L245.884 293.837Z" fill="white"/>
</g>
<defs>
<clipPath id="clip0_1171_89">
<rect width="512" height="512" fill="white"/>
</clipPath>
</defs>
</svg>
